<svg xmlns="http://www.w3.org/2000/svg" width="1920" height="1080" viewBox="0 0 1920 1080">
  <defs>
    <linearGradient id="g" x1="0" y1="0" x2="1" y2="1">
      <stop offset="0" stop-color="#6C63FF" stop-opacity="0.18"/>
      <stop offset="1" stop-color="#00C389" stop-opacity="0.14"/>
    </linearGradient>
    <radialGradient id="r1" cx="35%" cy="35%" r="55%">
      <stop offset="0" stop-color="#F97316" stop-opacity="0.20"/>
      <stop offset="1" stop-color="#F97316" stop-opacity="0"/>
    </radialGradient>
    <radialGradient id="r2" cx="70%" cy="60%" r="60%">
      <stop offset="0" stop-color="#00C389" stop-opacity="0.22"/>
      <stop offset="1" stop-color="#00C389" stop-opacity="0"/>
    </radialGradient>
    <filter id="blur" x="-20%" y="-20%" width="140%" height="140%">
      <feGaussianBlur stdDeviation="30"/>
    </filter>
  </defs>
  <rect width="1920" height="1080" fill="#0b1020"/>
  <rect width="1920" height="1080" fill="url(#g)"/>
  <circle cx="560" cy="360" r="420" fill="url(#r1)" filter="url(#blur)"/>
  <circle cx="1380" cy="720" r="520" fill="url(#r2)" filter="url(#blur)"/>
  <g fill="none" stroke="#e5e7eb" stroke-opacity="0.10" stroke-width="2">
    <path d="M220 250 C 520 90, 740 170, 960 260 S 1360 470, 1700 320" />
    <path d="M260 820 C 520 620, 780 640, 1040 740 S 1500 980, 1760 760" />
  </g>
  <g stroke="#e5e7eb" stroke-opacity="0.14" stroke-width="3" fill="none">
    <path d="M980 180 l120 80 -120 80" />
    <path d="M900 180 l-120 80 120 80" />
    <path d="M1220 880 l90 -70 -90 -70" />
    <path d="M700 880 l-90 -70 90 -70" />
  </g>
  <g fill="#e5e7eb" fill-opacity="0.16">
    <circle cx="320" cy="240" r="6"/><circle cx="420" cy="320" r="5"/><circle cx="520" cy="280" r="4"/>
    <circle cx="1560" cy="300" r="6"/><circle cx="1640" cy="380" r="5"/><circle cx="1500" cy="420" r="4"/>
    <circle cx="420" cy="860" r="6"/><circle cx="520" cy="800" r="5"/><circle cx="600" cy="900" r="4"/>
    <circle cx="1500" cy="860" r="6"/><circle cx="1600" cy="820" r="5"/><circle cx="1680" cy="900" r="4"/>
  </g>
  <g stroke="#6C63FF" stroke-opacity="0.18" stroke-width="2">
    <line x1="320" y1="240" x2="420" y2="320"/>
    <line x1="420" y1="320" x2="520" y2="280"/>
    <line x1="1560" y1="300" x2="1640" y2="380"/>
    <line x1="1640" y1="380" x2="1500" y2="420"/>
  </g>
</svg>